G04 EAGLE Gerber RS-274X export*
G75*
%MOMM*%
%FSLAX34Y34*%
%LPD*%
%INBottom Copper*%
%IPPOS*%
%AMOC8*
5,1,8,0,0,1.08239X$1,22.5*%
G01*
%ADD10R,1.508000X1.508000*%
%ADD11C,1.508000*%
%ADD12R,0.300000X2.500000*%
%ADD13C,0.756400*%
%ADD14C,0.152400*%


D10*
X148900Y229250D03*
D11*
X174300Y229250D03*
X199700Y229250D03*
X225100Y229250D03*
X250500Y229250D03*
X148900Y356000D03*
D10*
X250500Y356000D03*
D11*
X225100Y356000D03*
X199700Y356000D03*
X174300Y356000D03*
D12*
X327500Y167500D03*
X322500Y167500D03*
X317500Y167500D03*
X312500Y167500D03*
X307500Y167500D03*
D13*
X209500Y201500D03*
D14*
X307500Y184500D02*
X307500Y167500D01*
X224000Y187000D02*
X209500Y201500D01*
X224000Y187000D02*
X305000Y187000D01*
X307500Y184500D01*
D13*
X252000Y201500D03*
D14*
X306000Y201500D01*
X322000Y185500D01*
X322000Y168000D02*
X322500Y167500D01*
X322000Y168000D02*
X322000Y185500D01*
D13*
X283000Y354000D03*
D14*
X283000Y232033D01*
X327500Y187533D02*
X327500Y167500D01*
X327500Y187533D02*
X283000Y232033D01*
D13*
X232000Y194000D03*
D14*
X304000Y194000D01*
X312500Y185500D02*
X312500Y167500D01*
X312500Y185500D02*
X304000Y194000D01*
M02*
